<svg xmlns="http://www.w3.org/2000/svg" xmlns:xlink="http://www.w3.org/1999/xlink" width="500" zoomAndPan="magnify" viewBox="0 0 375 374.999991" height="500" preserveAspectRatio="xMidYMid meet" version="1.0"><defs><g/><clipPath id="3f938db756"><path d="M 25.0625 9.535156 L 370.65625 9.535156 L 370.65625 355.128906 L 25.0625 355.128906 Z M 25.0625 9.535156 " clip-rule="nonzero"/></clipPath><clipPath id="af6f8beaf9"><path d="M 197.859375 9.535156 C 102.425781 9.535156 25.0625 86.898438 25.0625 182.332031 C 25.0625 277.765625 102.425781 355.128906 197.859375 355.128906 C 293.292969 355.128906 370.65625 277.765625 370.65625 182.332031 C 370.65625 86.898438 293.292969 9.535156 197.859375 9.535156 Z M 197.859375 9.535156 " clip-rule="nonzero"/></clipPath><clipPath id="15d1263f6f"><path d="M 4.34375 29.351562 L 310.304688 29.351562 L 310.304688 335.3125 L 4.34375 335.3125 Z M 4.34375 29.351562 " clip-rule="nonzero"/></clipPath><clipPath id="ebdee4c75d"><path d="M 157.324219 29.351562 C 72.835938 29.351562 4.34375 97.84375 4.34375 182.332031 C 4.34375 266.820312 72.835938 335.3125 157.324219 335.3125 C 241.8125 335.3125 310.304688 266.820312 310.304688 182.332031 C 310.304688 97.84375 241.8125 29.351562 157.324219 29.351562 Z M 157.324219 29.351562 " clip-rule="nonzero"/></clipPath><clipPath id="999cc17c1f"><path d="M 13.957031 13.582031 L 351.398438 13.582031 L 351.398438 351 L 13.957031 351 Z M 13.957031 13.582031 " clip-rule="nonzero"/></clipPath></defs><g clip-path="url(#3f938db756)"><g clip-path="url(#af6f8beaf9)"><path fill="#e47876" d="M 25.0625 9.535156 L 370.65625 9.535156 L 370.65625 355.128906 L 25.0625 355.128906 Z M 25.0625 9.535156 " fill-opacity="1" fill-rule="nonzero"/></g></g><g clip-path="url(#15d1263f6f)"><g clip-path="url(#ebdee4c75d)"><path fill="#fcb661" d="M 4.34375 29.351562 L 310.304688 29.351562 L 310.304688 335.3125 L 4.34375 335.3125 Z M 4.34375 29.351562 " fill-opacity="1" fill-rule="nonzero"/></g></g><g fill="#272023" fill-opacity="1"><g transform="translate(56.559047, 253.184202)"><g><path d="M 101.296875 -126.03125 C 100.816406 -120.695312 100.488281 -115.535156 100.3125 -110.546875 C 100.132812 -105.566406 100.046875 -101.710938 100.046875 -98.984375 C 100.046875 -96.367188 100.101562 -93.875 100.21875 -91.5 C 100.34375 -89.125 100.460938 -87.109375 100.578125 -85.453125 L 96.484375 -85.453125 C 94.941406 -94.703125 92.804688 -101.96875 90.078125 -107.25 C 87.347656 -112.53125 83.992188 -116.296875 80.015625 -118.546875 C 76.035156 -120.804688 71.316406 -121.9375 65.859375 -121.9375 L 59.984375 -121.9375 C 56.546875 -121.9375 53.9375 -121.640625 52.15625 -121.046875 C 50.375 -120.453125 49.1875 -119.265625 48.59375 -117.484375 C 48 -115.703125 47.703125 -112.972656 47.703125 -109.296875 L 47.703125 -19.9375 C 47.703125 -15.3125 48.175781 -11.867188 49.125 -9.609375 C 50.082031 -7.359375 51.925781 -5.875 54.65625 -5.15625 C 57.382812 -4.445312 61.414062 -4.035156 66.75 -3.921875 L 66.75 0 C 63.070312 -0.113281 58.328125 -0.226562 52.515625 -0.34375 C 46.703125 -0.46875 40.585938 -0.53125 34.171875 -0.53125 C 29.078125 -0.53125 24.09375 -0.46875 19.21875 -0.34375 C 14.351562 -0.226562 9.960938 -0.113281 6.046875 0 L 6.046875 -3.5625 C 9.847656 -3.800781 12.695312 -4.273438 14.59375 -4.984375 C 16.5 -5.691406 17.773438 -7.113281 18.421875 -9.25 C 19.078125 -11.394531 19.40625 -14.601562 19.40625 -18.875 L 19.40625 -107.171875 C 19.40625 -111.554688 19.078125 -114.785156 18.421875 -116.859375 C 17.773438 -118.941406 16.472656 -120.367188 14.515625 -121.140625 C 12.554688 -121.910156 9.734375 -122.351562 6.046875 -122.46875 L 6.046875 -126.03125 C 10.910156 -125.914062 16.070312 -125.828125 21.53125 -125.765625 C 27 -125.703125 32.398438 -125.640625 37.734375 -125.578125 C 43.078125 -125.523438 48.0625 -125.5 52.6875 -125.5 C 57.320312 -125.5 61.117188 -125.5 64.078125 -125.5 C 69.546875 -125.5 75.75 -125.523438 82.6875 -125.578125 C 89.632812 -125.640625 95.835938 -125.789062 101.296875 -126.03125 Z M 74.765625 -64.4375 C 74.765625 -64.4375 74.765625 -63.84375 74.765625 -62.65625 C 74.765625 -61.46875 74.765625 -60.875 74.765625 -60.875 L 42.375 -60.875 C 42.375 -60.875 42.375 -61.46875 42.375 -62.65625 C 42.375 -63.84375 42.375 -64.4375 42.375 -64.4375 Z M 79.21875 -87.9375 C 78.738281 -81.175781 78.53125 -76.015625 78.59375 -72.453125 C 78.65625 -68.890625 78.6875 -65.625 78.6875 -62.65625 C 78.6875 -59.695312 78.742188 -56.4375 78.859375 -52.875 C 78.972656 -49.3125 79.269531 -44.148438 79.75 -37.390625 L 75.65625 -37.390625 C 74.945312 -41.535156 73.816406 -45.390625 72.265625 -48.953125 C 70.722656 -52.515625 68.46875 -55.390625 65.5 -57.578125 C 62.539062 -59.773438 58.6875 -60.875 53.9375 -60.875 L 53.9375 -64.4375 C 57.5 -64.4375 60.492188 -65.175781 62.921875 -66.65625 C 65.359375 -68.144531 67.40625 -70.101562 69.0625 -72.53125 C 70.726562 -74.96875 72.035156 -77.550781 72.984375 -80.28125 C 73.929688 -83.007812 74.644531 -85.5625 75.125 -87.9375 Z M 79.21875 -87.9375 "/></g></g></g><g fill="#272023" fill-opacity="1"><g transform="translate(181.519733, 253.184202)"><g><path d="M 114.28125 -126.03125 C 113.8125 -119.976562 113.488281 -114.160156 113.3125 -108.578125 C 113.132812 -103.003906 113.046875 -98.734375 113.046875 -95.765625 C 113.046875 -93.160156 113.101562 -90.671875 113.21875 -88.296875 C 113.332031 -85.921875 113.453125 -83.90625 113.578125 -82.25 L 109.484375 -82.25 C 107.578125 -92.21875 105.171875 -100.109375 102.265625 -105.921875 C 99.359375 -111.734375 95.882812 -115.851562 91.84375 -118.28125 C 87.8125 -120.71875 83.066406 -121.9375 77.609375 -121.9375 L 73.515625 -121.9375 L 73.515625 -20.296875 C 73.515625 -15.546875 74.019531 -11.984375 75.03125 -9.609375 C 76.039062 -7.234375 77.910156 -5.660156 80.640625 -4.890625 C 83.367188 -4.117188 87.34375 -3.675781 92.5625 -3.5625 L 92.5625 0 C 88.882812 -0.113281 83.988281 -0.226562 77.875 -0.34375 C 71.769531 -0.46875 65.394531 -0.53125 58.75 -0.53125 C 52.21875 -0.53125 46.046875 -0.46875 40.234375 -0.34375 C 34.421875 -0.226562 29.734375 -0.113281 26.171875 0 L 26.171875 -3.5625 C 31.503906 -3.675781 35.535156 -4.117188 38.265625 -4.890625 C 41.003906 -5.660156 42.847656 -7.234375 43.796875 -9.609375 C 44.742188 -11.984375 45.21875 -15.546875 45.21875 -20.296875 L 45.21875 -121.9375 L 41.296875 -121.9375 C 35.835938 -121.9375 31.085938 -120.71875 27.046875 -118.28125 C 23.015625 -115.851562 19.578125 -111.757812 16.734375 -106 C 13.890625 -100.25 11.394531 -92.332031 9.25 -82.25 L 5.15625 -82.25 C 5.394531 -83.90625 5.546875 -85.921875 5.609375 -88.296875 C 5.671875 -90.671875 5.703125 -93.160156 5.703125 -95.765625 C 5.703125 -98.734375 5.609375 -103.003906 5.421875 -108.578125 C 5.242188 -114.160156 4.921875 -119.976562 4.453125 -126.03125 C 9.910156 -125.914062 15.875 -125.796875 22.34375 -125.671875 C 28.8125 -125.554688 35.304688 -125.5 41.828125 -125.5 C 48.359375 -125.5 54.234375 -125.5 59.453125 -125.5 C 64.796875 -125.5 70.703125 -125.5 77.171875 -125.5 C 83.640625 -125.5 90.132812 -125.554688 96.65625 -125.671875 C 103.1875 -125.796875 109.0625 -125.914062 114.28125 -126.03125 Z M 114.28125 -126.03125 "/></g></g></g><g clip-path="url(#999cc17c1f)"><path fill="#000000" d="M 215.277344 347.832031 C 217.441406 347.832031 219.292969 347.832031 221.453125 347.523438 C 223.617188 347.214844 226.394531 346.90625 228.554688 346.289062 C 230.71875 345.671875 233.496094 345.054688 235.96875 344.4375 L 235.65625 344.4375 C 238.4375 343.820312 241.214844 342.890625 243.996094 341.964844 C 245.230469 341.65625 246.464844 341.039062 247.699219 340.730469 L 251.40625 339.1875 C 252.640625 338.570312 253.875 338.261719 254.800781 337.644531 C 256.039062 337.023438 257.273438 336.40625 258.507812 335.789062 C 260.976562 334.246094 263.757812 332.703125 266.226562 331.160156 C 268.699219 329.613281 271.476562 328.070312 274.253906 326.527344 L 277.960938 324.058594 L 281.664062 321.894531 C 284.445312 320.351562 287.222656 318.5 290.003906 316.335938 C 291.238281 315.410156 292.164062 314.484375 293.398438 313.558594 L 296.488281 310.78125 C 298.648438 308.925781 300.5 307.074219 302.664062 305.222656 C 303.589844 304.296875 304.515625 303.367188 305.441406 302.441406 C 306.367188 301.515625 307.292969 300.28125 308.21875 299.355469 C 309.765625 297.5 311 295.339844 312.542969 293.488281 C 313.160156 292.253906 314.085938 290.707031 314.703125 289.472656 C 315.324219 288.238281 316.25 287.003906 316.867188 285.769531 C 318.410156 283.296875 319.953125 280.519531 321.808594 278.050781 L 323.660156 274.960938 L 325.820312 271.566406 C 326.746094 270.328125 327.363281 269.09375 328.292969 267.859375 L 330.453125 264.460938 C 331.070312 263.535156 331.378906 262.609375 331.996094 261.683594 C 332.613281 260.757812 332.921875 259.832031 333.230469 258.90625 C 334.15625 256.742188 335.085938 254.582031 336.011719 252.421875 L 336.320312 251.804688 C 336.9375 250.257812 337.554688 248.714844 338.171875 247.171875 C 338.789062 245.628906 339.097656 244.082031 339.714844 242.539062 L 340.949219 238.214844 C 341.257812 236.671875 341.878906 235.128906 342.1875 233.585938 C 342.496094 232.042969 342.804688 230.804688 343.113281 229.261719 C 343.113281 228.335938 343.421875 227.410156 343.730469 226.484375 C 343.730469 226.175781 343.730469 225.867188 344.039062 225.558594 C 344.347656 225.25 344.347656 224.9375 344.347656 224.628906 C 344.65625 223.394531 344.964844 221.851562 344.964844 220.617188 C 344.964844 219.382812 345.582031 218.453125 345.582031 217.21875 C 345.582031 216.910156 345.582031 216.601562 345.582031 216.292969 L 345.582031 216.601562 C 345.582031 216.601562 345.582031 216.292969 345.582031 216.292969 C 345.582031 215.675781 345.890625 215.058594 345.890625 214.441406 C 345.890625 214.441406 345.890625 214.132812 345.890625 214.132812 C 345.890625 214.132812 345.890625 213.824219 345.890625 213.824219 C 345.890625 213.824219 345.890625 213.515625 345.890625 213.207031 C 345.890625 212.898438 345.890625 212.898438 345.890625 212.589844 L 345.890625 212.898438 C 345.890625 212.589844 346.199219 211.972656 346.199219 211.660156 C 346.199219 211.351562 346.507812 210.734375 346.816406 210.425781 C 347.125 209.5 347.742188 209.191406 348.671875 209.191406 L 348.980469 209.191406 C 348.980469 208.265625 349.289062 207.648438 349.289062 206.722656 L 349.289062 207.03125 C 349.597656 206.105469 349.597656 204.867188 349.597656 203.632812 C 349.597656 202.398438 349.597656 201.164062 349.597656 199.929688 C 349.597656 197.457031 349.597656 194.988281 349.597656 192.519531 C 349.597656 188.503906 349.597656 184.796875 349.289062 180.785156 C 348.980469 176.769531 348.671875 172.757812 348.363281 168.742188 C 347.742188 164.109375 347.125 159.480469 346.199219 154.847656 C 345.890625 152.6875 345.273438 150.523438 344.964844 148.054688 C 344.65625 145.582031 344.039062 143.421875 343.421875 141.261719 L 343.421875 141.570312 C 342.496094 138.480469 341.878906 135.703125 340.949219 132.613281 C 340.023438 129.527344 338.789062 126.441406 337.554688 123.351562 L 337.554688 123.042969 L 336.9375 121.808594 L 336.628906 121.5 C 336.320312 120.882812 336.011719 120.265625 335.703125 119.335938 C 335.085938 118.101562 334.464844 116.558594 333.847656 115.324219 C 331.378906 110.074219 328.601562 105.132812 325.820312 99.882812 C 324.585938 97.722656 323.351562 95.871094 322.117188 93.710938 C 321.496094 92.78125 320.878906 91.855469 320.261719 90.929688 C 319.644531 90.003906 318.71875 88.769531 317.792969 87.535156 C 315.632812 84.445312 313.160156 81.667969 310.691406 78.578125 C 309.457031 77.035156 308.21875 75.492188 306.984375 73.949219 C 305.75 72.402344 304.515625 71.167969 302.972656 69.625 C 299.574219 66.226562 295.871094 62.832031 292.472656 59.742188 C 290.621094 58.199219 289.078125 56.65625 287.222656 55.113281 C 285.371094 53.566406 283.519531 52.023438 281.664062 50.480469 L 281.046875 49.863281 L 275.800781 45.847656 C 273.945312 44.613281 272.09375 43.378906 270.242188 42.144531 L 264.066406 38.746094 L 258.199219 35.96875 C 256.039062 34.734375 253.875 33.496094 251.714844 32.570312 L 244.921875 29.484375 C 243.6875 28.867188 242.449219 28.558594 240.90625 27.941406 C 239.363281 27.320312 237.511719 26.703125 235.96875 26.394531 C 233.1875 25.46875 230.410156 24.542969 227.628906 23.925781 L 227.9375 23.925781 C 223.925781 22.691406 219.910156 21.765625 215.585938 20.839844 C 211.265625 19.910156 207.558594 19.292969 203.546875 18.675781 L 203.855469 18.675781 C 201.691406 18.367188 199.839844 18.058594 197.679688 18.058594 C 195.515625 18.058594 193.355469 17.75 191.195312 17.441406 L 185.019531 17.132812 C 182.855469 17.132812 181.003906 16.824219 178.84375 16.824219 L 179.152344 16.824219 C 176.371094 16.824219 173.59375 16.824219 170.507812 16.824219 C 167.417969 16.824219 164.332031 16.824219 161.242188 17.132812 C 158.15625 17.441406 155.066406 17.441406 151.980469 17.75 C 150.4375 17.75 148.890625 18.058594 147.347656 18.058594 C 145.804688 18.058594 144.261719 18.367188 143.023438 18.367188 C 140.246094 18.675781 137.46875 19.292969 134.6875 19.910156 C 131.910156 20.527344 129.128906 21.148438 126.042969 21.765625 L 126.351562 21.765625 C 123.261719 22.691406 119.867188 23.617188 116.777344 24.542969 C 113.691406 25.46875 110.605469 26.703125 107.824219 27.941406 L 108.132812 27.941406 C 104.121094 29.792969 99.796875 31.644531 95.78125 33.496094 C 93.929688 34.425781 91.769531 35.660156 89.914062 36.585938 C 88.0625 37.511719 86.210938 38.746094 84.359375 39.671875 C 82.503906 40.601562 81.269531 41.527344 80.035156 42.453125 C 78.800781 43.378906 77.253906 44.304688 76.019531 45.230469 C 74.785156 46.15625 72.933594 47.394531 71.390625 48.628906 C 69.84375 49.863281 68.300781 50.789062 67.066406 51.714844 C 65.832031 52.640625 64.597656 53.566406 63.667969 54.804688 C 62.742188 56.039062 61.199219 56.964844 60.273438 57.890625 C 57.804688 60.050781 55.640625 62.214844 53.171875 64.683594 C 50.699219 67.15625 49.15625 69.007812 46.996094 71.476562 C 44.835938 73.949219 42.980469 76.417969 41.128906 78.886719 C 38.96875 81.667969 36.804688 84.445312 35.261719 87.535156 C 33.71875 90.3125 32.175781 92.78125 30.9375 95.5625 L 28.777344 99.886719 C 26.617188 100.503906 26 101.738281 25.382812 103.28125 C 24.144531 106.371094 22.910156 109.457031 21.984375 112.851562 C 21.058594 115.941406 20.441406 119.027344 19.824219 122.117188 C 19.207031 125.203125 18.589844 128.292969 18.28125 131.378906 C 17.96875 134.46875 17.660156 136.9375 17.351562 139.71875 C 17.042969 142.496094 16.734375 144.964844 16.425781 147.4375 C 16.734375 152.996094 16.734375 157.933594 16.734375 162.875 C 16.734375 164.726562 16.734375 166.582031 16.734375 168.433594 C 16.734375 170.285156 16.734375 172.449219 16.734375 174.300781 C 16.734375 178.003906 17.042969 181.710938 17.351562 185.414062 C 17.660156 188.195312 18.28125 190.972656 18.898438 193.753906 C 19.515625 196.53125 19.824219 199.3125 20.75 202.089844 C 21.984375 206.105469 22.910156 210.425781 24.453125 214.441406 C 25.691406 218.457031 26.925781 222.160156 28.46875 225.867188 C 30.011719 229.570312 31.867188 233.277344 34.027344 236.671875 C 35.261719 238.527344 36.496094 240.378906 37.730469 242.230469 L 41.4375 248.40625 C 42.671875 250.257812 43.90625 252.421875 45.144531 254.273438 C 46.378906 256.125 47.921875 257.976562 49.15625 259.832031 C 51.007812 262.300781 53.171875 264.773438 55.023438 266.933594 C 56.875 269.09375 59.039062 271.566406 61.199219 274.035156 C 61.816406 274.652344 62.433594 275.269531 63.359375 275.886719 C 63.976562 276.503906 64.90625 277.121094 65.523438 277.742188 L 67.683594 279.59375 L 68.300781 280.210938 C 70.152344 281.753906 72.007812 283.296875 73.859375 284.84375 C 75.710938 286.386719 77.566406 288.238281 79.417969 289.78125 C 81.886719 291.636719 84.667969 293.796875 87.136719 295.648438 L 91.460938 299.046875 C 92.695312 299.972656 94.238281 300.898438 95.472656 302.132812 C 96.707031 303.367188 98.253906 303.984375 99.796875 304.914062 L 104.121094 308 C 106.898438 310.160156 109.984375 312.015625 112.765625 313.867188 C 114.617188 315.101562 116.46875 316.335938 118.632812 317.574219 L 124.5 321.277344 C 126.351562 322.203125 128.203125 323.4375 130.054688 324.367188 L 135.613281 327.453125 C 139.320312 329.613281 143.332031 331.160156 147.039062 333.011719 L 154.449219 336.40625 C 155.992188 337.023438 157.539062 337.644531 159.390625 338.261719 L 164.332031 340.113281 C 166.183594 340.730469 167.726562 341.347656 169.578125 341.964844 C 170.507812 342.273438 171.125 342.582031 172.050781 342.582031 L 174.519531 343.507812 L 178.226562 344.4375 C 179.769531 344.746094 181.003906 345.054688 182.238281 345.671875 L 186.253906 346.597656 C 187.488281 346.90625 188.722656 347.214844 190.269531 347.214844 C 193.355469 347.523438 196.132812 347.832031 199.222656 348.140625 C 200.765625 348.449219 202 348.449219 203.546875 348.449219 C 205.089844 348.449219 206.632812 348.757812 208.175781 348.757812 L 208.792969 348.757812 C 210.648438 347.832031 213.117188 347.832031 215.277344 347.832031 Z M 208.484375 350.921875 C 206.632812 350.921875 205.089844 350.921875 203.238281 350.613281 C 201.691406 350.613281 200.148438 350.304688 198.605469 350.304688 L 193.664062 349.683594 L 189.03125 349.066406 L 186.5625 348.757812 C 185.636719 348.757812 185.019531 348.449219 184.09375 348.140625 L 179.460938 346.90625 C 177.917969 346.597656 176.0625 345.980469 174.519531 345.671875 L 172.359375 345.054688 C 172.050781 345.054688 171.742188 344.746094 171.433594 344.746094 L 170.199219 344.4375 C 168.34375 343.820312 166.492188 343.199219 164.949219 342.582031 L 160.007812 340.730469 C 158.15625 340.113281 156.300781 339.496094 154.449219 338.878906 C 153.523438 338.570312 152.90625 338.261719 151.980469 337.953125 L 149.199219 336.714844 C 146.113281 335.480469 143.023438 333.9375 139.9375 332.703125 C 138.394531 332.085938 136.851562 331.160156 135.304688 330.230469 L 130.675781 327.761719 L 126.042969 325.292969 C 124.5 324.675781 122.953125 323.746094 121.71875 322.820312 L 117.398438 320.351562 L 112.457031 316.953125 C 109.675781 315.101562 106.589844 313.25 104.121094 311.398438 L 99.796875 308.308594 C 98.253906 307.382812 97.015625 306.148438 95.472656 305.222656 C 93.929688 304.296875 92.695312 303.367188 91.152344 302.132812 C 89.605469 300.898438 88.371094 299.972656 87.136719 299.046875 C 84.359375 296.882812 81.886719 295.03125 79.109375 292.871094 L 75.710938 290.398438 C 74.476562 289.472656 73.550781 288.546875 72.316406 287.621094 C 70.152344 285.769531 67.992188 283.914062 65.832031 282.0625 L 66.140625 282.371094 L 65.523438 281.753906 C 63.976562 280.828125 62.742188 279.59375 61.199219 278.359375 C 59.964844 277.429688 58.730469 276.195312 57.492188 274.960938 C 56.257812 273.726562 55.332031 272.492188 54.097656 270.945312 L 50.699219 267.242188 C 48.539062 264.773438 46.378906 261.992188 44.523438 259.523438 C 42.671875 257.050781 40.820312 253.964844 38.96875 251.183594 C 37.113281 248.40625 35.261719 245.011719 33.410156 242.230469 C 32.484375 240.6875 31.558594 239.453125 30.628906 237.90625 C 29.703125 236.363281 29.085938 234.820312 28.160156 233.277344 C 27.234375 231.734375 26.617188 230.1875 26 228.644531 C 25.382812 227.101562 24.761719 225.558594 24.144531 224.011719 C 22.910156 220.925781 21.984375 217.835938 21.058594 214.75 C 20.132812 211.660156 19.207031 207.957031 17.96875 204.558594 C 17.660156 203.015625 17.042969 201.164062 16.734375 199.3125 C 16.425781 197.457031 16.425781 195.914062 16.117188 194.371094 C 15.5 190.972656 14.882812 187.886719 14.574219 184.488281 C 14.265625 181.09375 13.957031 177.695312 13.957031 174.609375 C 13.957031 171.519531 13.957031 167.816406 13.957031 164.417969 C 13.957031 161.023438 13.957031 158.242188 14.265625 155.15625 C 14.574219 152.066406 14.574219 148.363281 14.882812 145.273438 C 15.191406 142.1875 15.5 138.171875 16.117188 134.777344 C 16.734375 131.378906 17.042969 127.675781 17.660156 124.277344 C 18.28125 120.882812 18.898438 117.175781 19.824219 113.78125 C 20.132812 112.234375 20.75 110.382812 21.367188 108.839844 C 21.984375 107.296875 22.601562 105.441406 23.21875 103.898438 C 23.835938 102.355469 24.453125 100.8125 25.382812 99.265625 C 26.308594 97.722656 26.925781 96.179688 27.851562 94.636719 C 29.394531 91.546875 30.9375 88.769531 32.792969 85.988281 C 34.335938 83.210938 36.1875 80.433594 38.042969 77.960938 C 40.203125 75.183594 42.363281 72.710938 44.523438 69.933594 C 46.6875 67.464844 48.847656 64.992188 51.007812 62.523438 L 54.714844 58.816406 L 58.421875 55.113281 C 59.65625 53.878906 60.890625 52.640625 62.433594 51.714844 C 63.667969 50.480469 65.214844 49.554688 66.757812 48.320312 C 68.300781 47.085938 69.535156 46.464844 71.082031 45.230469 L 75.402344 42.144531 C 77.875 40.289062 80.652344 38.4375 83.738281 36.894531 C 86.828125 35.351562 89.605469 33.496094 92.695312 31.953125 C 94.238281 31.027344 95.78125 30.410156 97.015625 29.484375 C 98.253906 28.558594 100.105469 27.941406 101.648438 27.324219 C 104.738281 25.777344 107.824219 24.542969 111.222656 23.308594 C 114.617188 22.074219 117.707031 21.148438 121.101562 20.21875 C 124.5 19.292969 127.585938 18.367188 130.984375 17.441406 C 134.378906 16.515625 137.46875 16.207031 140.863281 15.589844 C 144.261719 14.972656 147.65625 14.664062 151.363281 14.355469 L 161.550781 13.734375 C 164.332031 14.042969 167.726562 13.734375 171.125 13.734375 C 174.519531 13.734375 177.609375 13.734375 181.003906 13.734375 C 184.402344 13.734375 187.796875 14.042969 191.503906 14.355469 C 195.207031 14.664062 198.296875 14.972656 201.691406 15.28125 C 205.089844 15.589844 208.484375 16.207031 211.882812 16.824219 C 215.277344 17.441406 218.367188 18.058594 221.453125 18.984375 C 224.542969 19.910156 227.9375 20.527344 231.335938 21.765625 C 234.730469 23 238.128906 23.925781 241.214844 24.851562 C 244.304688 25.777344 247.390625 27.324219 250.789062 28.867188 C 252.332031 29.484375 253.875 30.101562 255.109375 31.027344 C 256.347656 31.953125 257.890625 32.570312 259.433594 33.496094 C 262.523438 35.351562 265.300781 36.894531 268.386719 38.4375 C 271.167969 39.980469 273.945312 41.835938 276.726562 43.6875 C 278.578125 45.230469 280.738281 46.464844 282.59375 48.011719 C 285.371094 50.171875 288.148438 52.332031 290.621094 54.496094 C 293.089844 56.65625 295.5625 59.125 298.03125 61.289062 C 300.5 63.449219 303.28125 65.917969 305.441406 68.699219 C 306.675781 69.933594 307.910156 71.167969 309.148438 72.710938 C 310.382812 74.257812 311.617188 75.492188 312.542969 77.035156 C 314.703125 79.8125 316.867188 82.285156 318.71875 84.753906 C 319.953125 86.296875 320.878906 87.84375 322.117188 89.386719 C 323.042969 90.621094 323.96875 92.164062 324.585938 93.402344 C 326.4375 96.488281 328.292969 99.265625 329.835938 102.355469 C 331.378906 105.441406 333.230469 108.839844 334.777344 111.925781 C 336.011719 114.707031 337.554688 117.484375 338.480469 120.265625 L 338.480469 120.574219 C 338.480469 120.574219 338.480469 120.882812 338.480469 120.882812 L 339.097656 122.117188 L 339.097656 122.425781 C 339.40625 123.042969 339.40625 123.351562 339.714844 123.96875 C 340.023438 124.585938 340.332031 125.511719 340.640625 126.441406 C 341.257812 128.292969 341.878906 129.835938 342.496094 131.6875 C 343.421875 134.777344 344.347656 138.171875 345.273438 141.570312 C 345.890625 143.421875 346.199219 144.964844 346.507812 146.820312 C 346.816406 148.671875 347.125 150.214844 347.433594 152.066406 C 348.054688 155.464844 348.671875 158.859375 349.289062 162.257812 C 349.90625 165.652344 350.214844 169.050781 350.523438 172.136719 C 350.832031 175.226562 351.140625 179.242188 351.140625 182.945312 C 351.140625 184.796875 351.449219 186.652344 351.449219 188.8125 C 351.449219 190.972656 351.449219 192.210938 351.449219 194.0625 L 351.449219 199.3125 C 351.449219 201.164062 351.449219 203.015625 351.140625 204.867188 C 350.832031 206.722656 350.832031 208.265625 350.523438 210.117188 C 350.214844 211.351562 349.90625 212.898438 349.597656 214.132812 C 349.289062 214.75 348.671875 215.058594 348.054688 215.058594 C 347.742188 215.058594 347.433594 215.058594 347.433594 214.75 L 347.433594 214.441406 C 347.433594 214.441406 347.433594 214.75 347.433594 214.75 L 347.433594 215.367188 C 347.433594 215.675781 347.125 216.292969 347.125 216.601562 C 347.125 216.601562 347.125 216.910156 347.125 216.910156 L 347.125 216.601562 C 347.125 216.601562 347.125 216.910156 347.125 216.910156 C 347.125 217.527344 346.816406 218.144531 346.816406 219.074219 C 346.816406 220 346.507812 220.617188 346.507812 221.234375 C 346.507812 221.851562 346.199219 222.777344 346.199219 223.703125 C 345.890625 224.628906 345.890625 225.25 345.582031 226.175781 C 345.582031 226.792969 345.273438 227.410156 345.273438 228.027344 C 344.964844 228.953125 344.964844 230.1875 344.65625 231.421875 C 344.347656 232.660156 344.039062 234.511719 343.730469 236.054688 C 343.421875 237.597656 343.113281 238.835938 342.496094 240.070312 L 342.496094 240.378906 C 341.878906 242.539062 341.570312 244.390625 340.640625 246.554688 C 340.332031 247.789062 339.714844 249.023438 339.40625 250.257812 C 339.097656 251.496094 338.480469 252.730469 337.863281 253.964844 L 337.246094 255.199219 C 336.011719 257.976562 335.085938 260.757812 333.847656 263.226562 C 333.230469 264.460938 332.613281 265.699219 331.6875 266.933594 C 330.761719 268.167969 329.835938 269.710938 328.910156 270.945312 C 327.363281 273.417969 325.511719 275.886719 323.96875 278.667969 C 322.425781 281.445312 320.570312 284.222656 318.71875 287.003906 C 318.71875 287.3125 318.410156 287.621094 318.101562 287.929688 L 318.101562 287.621094 C 317.175781 289.164062 316.25 290.707031 315.632812 292.253906 C 315.015625 293.796875 313.777344 295.339844 312.851562 296.882812 C 311.925781 298.429688 311 299.664062 309.765625 300.898438 C 308.53125 302.132812 307.910156 303.367188 306.675781 304.605469 C 304.515625 306.765625 302.664062 308.617188 300.191406 310.46875 C 297.722656 312.632812 295.253906 315.101562 292.78125 316.953125 C 290.003906 319.117188 287.222656 321.277344 284.445312 323.128906 C 283.210938 324.058594 281.664062 324.675781 280.429688 325.601562 C 279.195312 326.527344 277.960938 327.144531 276.417969 328.070312 C 273.636719 329.921875 271.167969 331.46875 268.386719 333.011719 C 266.84375 333.9375 265.300781 334.863281 264.066406 335.789062 L 260.667969 337.953125 C 259.433594 338.570312 257.890625 339.496094 256.65625 340.113281 C 255.417969 340.730469 253.875 341.347656 252.332031 341.964844 L 248.316406 343.507812 C 247.082031 344.128906 245.539062 344.4375 243.996094 344.746094 C 240.90625 345.671875 237.820312 346.597656 234.730469 347.523438 C 231.644531 348.449219 228.554688 349.066406 225.46875 349.683594 C 224.234375 349.992188 222.691406 349.992188 221.453125 350.304688 C 220.21875 350.613281 218.675781 350.613281 217.132812 350.613281 C 214.660156 350.613281 211.882812 350.921875 209.410156 350.921875 Z M 208.484375 350.921875 " fill-opacity="1" fill-rule="nonzero"/></g></svg>